<?xml version="1.0" encoding="UTF-8" standalone="no"?>
<svg
   xmlns:dc="http://purl.org/dc/elements/1.1/"
   xmlns:cc="http://creativecommons.org/ns#"
   xmlns:rdf="http://www.w3.org/1999/02/22-rdf-syntax-ns#"
   xmlns:svg="http://www.w3.org/2000/svg"
   xmlns="http://www.w3.org/2000/svg"
   xmlns:sodipodi="http://sodipodi.sourceforge.net/DTD/sodipodi-0.dtd"
   xmlns:inkscape="http://www.inkscape.org/namespaces/inkscape"
   width="259.27219mm"
   height="75.916748mm"
   viewBox="0 0 259.27219 75.916748"
   version="1.1"
   id="svg463"
   inkscape:version="1.0.2 (e86c870879, 2021-01-15)"
   sodipodi:docname="logo-transparent.svg">
  <defs
     id="defs457">
    <filter
       inkscape:label="Plasticine"
       inkscape:menu="Bumps"
       inkscape:menu-tooltip="Matte modeling paste emboss effect"
       style="color-interpolation-filters:sRGB"
       id="filter3408">
      <feGaussianBlur
         result="result3"
         stdDeviation="4"
         in="SourceGraphic"
         id="feGaussianBlur3384" />
      <feComponentTransfer
         in="result3"
         result="result1"
         id="feComponentTransfer3392">
        <feFuncR
           tableValues="0 0.1 0.2 0.3 0.4 0.5 0.6 0.7 0.8 0.9 1"
           type="discrete"
           id="feFuncR3386" />
        <feFuncG
           tableValues="0 0.1 0.2 0.3 0.4 0.5 0.6 0.7 0.8 0.9 1"
           type="discrete"
           id="feFuncG3388" />
        <feFuncB
           tableValues="0 0.1 0.2 0.3 0.4 0.5 0.6 0.7 0.8 0.9 1"
           type="discrete"
           id="feFuncB3390" />
      </feComponentTransfer>
      <feGaussianBlur
         stdDeviation="2"
         result="result5"
         id="feGaussianBlur3394" />
      <feBlend
         in2="result1"
         mode="lighten"
         result="result6"
         id="feBlend3396" />
      <feColorMatrix
         result="result2"
         type="luminanceToAlpha"
         in="result6"
         id="feColorMatrix3398" />
      <feDiffuseLighting
         lighting-color="#ffffff"
         in="result2"
         diffuseConstant="0.69999999"
         result="result1"
         surfaceScale="-15"
         id="feDiffuseLighting3402">
        <feDistantLight
           azimuth="225"
           elevation="20"
           id="feDistantLight3400" />
      </feDiffuseLighting>
      <feComposite
         in2="result6"
         k2="0.5"
         result="result3"
         k3="0.8"
         k1="0.2"
         in="result1"
         operator="arithmetic"
         id="feComposite3404"
         k4="0" />
      <feComposite
         in2="SourceGraphic"
         result="result7"
         operator="in"
         in="result3"
         id="feComposite3406" />
    </filter>
  </defs>
  <sodipodi:namedview
     id="base"
     pagecolor="#ffffff"
     bordercolor="#666666"
     borderopacity="1.0"
     inkscape:pageopacity="0.0"
     inkscape:pageshadow="2"
     inkscape:zoom="0.35"
     inkscape:cx="238.5564"
     inkscape:cy="456.88611"
     inkscape:document-units="mm"
     inkscape:current-layer="layer1"
     inkscape:document-rotation="0"
     showgrid="false"
     inkscape:window-width="1920"
     inkscape:window-height="1016"
     inkscape:window-x="0"
     inkscape:window-y="27"
     inkscape:window-maximized="1" />
  <metadata
     id="metadata460">
    <rdf:RDF>
      <cc:Work
         rdf:about="">
        <dc:format>image/svg+xml</dc:format>
        <dc:type
           rdf:resource="http://purl.org/dc/dcmitype/StillImage" />
        <dc:title></dc:title>
      </cc:Work>
    </rdf:RDF>
  </metadata>
  <g
     inkscape:label="Layer 1"
     inkscape:groupmode="layer"
     id="layer1"
     transform="translate(-19.578128,-5.5543577)">
    <g
       id="g3893"
       inkscape:export-xdpi="96"
       inkscape:export-ydpi="96"
       transform="translate(-24.494416,-84.220939)">
      <g
         id="g3143"
         transform="translate(-56.480325,179.04575)">
        <text
           xml:space="preserve"
           style="font-style:normal;font-variant:normal;font-weight:900;font-stretch:condensed;font-size:42.2005px;font-family:'Noto Sans Malayalam';-inkscape-font-specification:'Noto Sans Malayalam, Heavy Condensed';font-variant-ligatures:normal;font-variant-caps:normal;font-variant-numeric:normal;font-variant-east-asian:normal;opacity:0.979345;fill:#e5220d;fill-opacity:1;fill-rule:evenodd;stroke:none;stroke-width:1.19997;stroke-opacity:1;paint-order:fill markers stroke"
           x="202.784"
           y="-42.420597"
           id="text3139"
           transform="scale(1.0988022,0.9100819)"><tspan
             sodipodi:role="line"
             id="tspan3137"
             x="202.784"
             y="-42.420597"
             style="font-style:normal;font-variant:normal;font-weight:900;font-stretch:condensed;font-size:42.2005px;font-family:'Noto Sans Malayalam';-inkscape-font-specification:'Noto Sans Malayalam, Heavy Condensed';font-variant-ligatures:normal;font-variant-caps:normal;font-variant-numeric:normal;font-variant-east-asian:normal;fill:#e5220d;fill-opacity:1;stroke-width:1.19997">+</tspan></text>
        <circle
           style="opacity:0.979345;fill:none;fill-opacity:1;fill-rule:evenodd;stroke:#ff0000;stroke-width:0.459757;stroke-opacity:1;paint-order:fill markers stroke"
           id="circle3141"
           sodipodi:type="arc"
           sodipodi:cx="234.31358"
           sodipodi:cy="-52.251724"
           sodipodi:rx="13.127941"
           sodipodi:ry="11.194343"
           sodipodi:start="6.2121789"
           sodipodi:end="6.209864"
           sodipodi:open="true"
           sodipodi:arc-type="arc"
           d="m 247.40844,-53.045927 a 13.127941,11.194343 0 0 1 -12.15589,11.959875 13.127941,11.194343 0 0 1 -14.03274,-10.358546 13.127941,11.194343 0 0 1 12.13966,-11.971865 13.127941,11.194343 0 0 1 14.04678,10.34469" />
      </g>
      <path
         style="fill:#ff0000;fill-opacity:1;fill-rule:evenodd;stroke:none;stroke-width:0.593969;stroke-opacity:1;paint-order:fill markers stroke"
         d="m 68.944089,106.24977 1.84412,-2.73112 10.620556,-4.885312 c 0,0 5.73042,-1.03114 8.62215,-1.31154 l 2.89173,-0.28039 9.162605,1.74272 8.62444,2.032762 9.68514,1.76676 11.02376,-0.37969 4.94847,2.37338 7.7476,6.01921 8.73823,1.50766 5.66998,6.32111 4.99117,5.35425 2.8579,5.08346 c -1.41181,1.4811 -2.85957,2.31486 -4.44586,0.6545 l -5.95657,-4.29297 -2.74728,-1.24557 -0.34878,4.25684 2.3701,7.27129 -0.4031,2.76771 -2.67735,-0.008 -2.42708,-1.60592 -0.90417,-0.49988 h -0.55 l 0.93945,1.3635 -0.43511,0.97031 -3.48624,-0.39427 -1.34511,-1.84963 -0.35052,-3.16736 -0.75672,-1.18985 -1.23719,-1.89477 -0.69116,-3.08098 -2.36343,-0.93492 -2.17416,-2.2681 h -0.39105 l -0.0529,0.57054 v 1.77464 2.06113 l 0.17329,1.37122 1.02246,1.38155 0.90468,2.33678 -0.42603,1.85538 -0.40061,1.04983 -1.54644,0.92849 c 0,0 -1.01358,0.71692 -2.28339,0.28939 l -1.26981,-0.42751 -1.08179,-0.9736 -1.24206,1.07127 -1.18084,1.80039 c 0,0 -2.97484,0.85862 -2.97484,-1.13751 v -1.99614 l 0.25261,-0.88823 0.92273,-1.10639 v -0.10139 l -1.80738,-0.88226 -2.49374,-2.28017 -2.57997,-1.61851 -3.52121,-1.53824 -3.96017,-0.68731 -3.81386,-1.04569 -5.73483,-0.60758 -1.94953,-1.14208 -2.833255,-2.13486 c 0,0 -1.00538,-0.97232 -1.72027,-1.75244 -0.71487,-0.78013 -1.04238,-2.6148 -2.52867,-2.95776 -1.48628,-0.34296 -3.09457,1.36955 -4.75922,2.00216 -1.66466,0.63262 -3.74421,0.91897 -5.22684,1.77976 -1.48262,0.8608 -1.75603,1.61006 -3.55982,3.16287 -1.80379,1.55282 -4.62218,4.23772 -7.31215,6.09832 -2.689956,1.86059 -10.274118,5.5903 -8.788916,4.98182 2.80919,-1.15092 3.481581,-3.96099 1.939864,-0.95527 -1.541717,3.00571 -0.655355,-19.83799 0.73273,-23.74734 z"
         id="path3145"
         sodipodi:nodetypes="cccscccccccccccccccccccccccccccccccccccccccccsccccsccccccccccccczzzzzzszcc" />
      <path
         style="fill:#00a2ff;fill-opacity:1;fill-rule:evenodd;stroke:none;stroke-width:0.642001;stroke-opacity:1;paint-order:fill markers stroke"
         d="m 189.70714,122.79581 c 1.20568,-1.30063 4.35039,-2.03326 8.75138,-3.34064 4.401,-1.30738 6.00365,-2.05965 8.80194,-2.61476 2.7983,-0.55512 5.41381,-0.74188 7.89286,-0.81508 2.47905,-0.0732 -1.0911,0.7223 6.93929,0.30458 l 8.03037,-0.41772 6.44441,-1.23782 6.58556,-2.69771 8.33518,-2.02766 c 0,0 2.07918,-0.92346 7.77717,-1.01014 l 5.69798,-0.0867 10.288,-2.06578 2.94137,0.25215 1.8114,1.48477 c 1.33769,1.56563 3.15001,19.17142 1.09708,21.52376 -2.05294,2.35235 -2.21347,0.26975 -3.35172,0.59651 -1.13826,0.32675 -2.00208,0.62785 -3.43282,1.38297 -1.43074,0.75512 -3.79989,2.67414 -4.99622,3.33274 -1.19633,0.6586 -1.95904,0.92965 -1.99948,0.88863 -0.0404,-0.041 0.51737,-0.0703 -0.0809,-0.0821 -0.59827,-0.0118 -1.07983,1.51003 -2.53547,2.37649 -1.45564,0.86647 -4.5469,1.49743 -6.34772,2.10911 -1.80082,0.61167 -2.95092,1.26933 -4.46118,1.54848 -1.51026,0.27916 -4.49058,0.14133 -4.49058,0.14133 l -2.7514,0.3848 -2.10105,3.3295 -0.21388,3.57519 -0.86807,3.52681 -3.487,2.06167 -2.68248,-1.75702 c 0,0 -2.17417,-3.04038 -1.25351,-6.01355 l 0.92065,-2.97317 2.57299,-3.56788 -1.19478,-1.16778 -2.41287,2.35339 -3.49237,3.45083 -2.26382,3.50974 -0.66948,2.78266 c 0,0 -0.38959,2.54876 -1.93072,3.21519 l -1.54113,0.66643 h -2.14009 l -2.91901,0.11009 c 0,0 -2.40071,2.06407 -2.80912,0.83031 l -0.4084,-1.23377 -0.7297,-3.24156 v -4.63227 c 0,0 0.36056,-4.96332 0.36056,-6.00896 0,-1.04564 1.58367,0.007 0,-1.04564 l -1.58368,-1.05319 -1.79641,-1.70597 c 0,0 -0.99952,-1.91338 0.37206,-2.53253 l 1.37157,-0.61916 3.11302,-0.77684 4.21332,-3.00788 2.60436,-1.99129 c 0,0 2.07185,-0.071 0.33467,-1.48746 l -1.73718,-1.41647 c 0,0 -1.6921,-0.84399 -2.69389,-0.83825 l -1.00181,0.006 c 0,0 -4.75282,-0.18057 -4.64357,-0.0778 0.10926,0.10275 0.61621,-0.51564 0.21852,0.20549 -0.39769,0.72114 -2.70081,-1.07974 -4.49311,-1.16298 -1.79229,-0.0832 -4.08026,0.72244 -6.04546,0.97845 -1.96522,0.25601 -4.92097,0.35426 -5.7387,0.56783 -0.81774,0.21358 -0.3315,0.25877 -1.63548,0.42716 -1.30398,0.16838 -4.8818,0.28224 -6.19851,0.008 -1.31671,-0.27375 -1.25664,-0.39485 -1.71463,-0.74796 -0.45799,-0.35311 -0.90086,-0.78474 -0.99119,-1.25495 -0.0903,-0.47021 -0.84279,0.0798 0.36288,-1.22086 z"
         id="path3147"
         sodipodi:nodetypes="zzzzsccccscccczzzzzzzzzcccccccscccccccscccscccssccsccccscsczzzzzzzzzz" />
      <rect
         style="opacity:0.979345;fill:none;fill-opacity:0.976075;fill-rule:evenodd;stroke:#000000;stroke-width:0.612372;stroke-opacity:1;paint-order:fill markers stroke;filter:url(#filter3408)"
         id="rect3149"
         width="216.06013"
         height="63.263954"
         x="65.678558"
         y="96.101692"
         ry="21.255615" />
    </g>
  </g>
</svg>
